# xmcd
#
# Track frame offsets:
#	150
#	21025
#	39061
#	56247
#	71737
#	87543
#	100690
#	113328
#	131576
#	148108
#	163318
#	177921
#	192663
#	208776
#	224619
#	238641
#	252732
#	266359
#	285535
#	300026
#	313589
#	328595
#
# Disc length: 4567 seconds
#
# Revision: 0
# Processed by: cddbd v1.5.2PL0 Copyright (c) Steve Scherf et al.
# Submitted via: dBpowerAMP V4.0
#
DISCID=4711d516
DTITLE=Various Artist - ERG Nu Country Traxx Vol. 226 CAN
DYEAR=2013
DGENRE=Country
TTITLE0=Tim McGraw ft. Taylor Swift And Keith Urban  - Highway Don't Care
TTITLE1=Brad Paisley - Beat This Summer
TTITLE2=Doc Walker - Put It Into Drive
TTITLE3=Band Perry, The - Done.
TTITLE4=Deric Ruttan - Where The Train Don't Stop
TTITLE5=Jason Aldean - 1994
TTITLE6=Gord Bamford - Farm Girl Strong
TTITLE7=Maggie Rose - Better
TTITLE8=Sheryl Crow - Easy
TTITLE9=Billy Currington - Hey Girl
TTITLE10=Randy Houser  - Runnin' Outta Moonlight
TTITLE11=Robyn And Ryleigh - Just Another Sundown
TTITLE12=Terri Clark ft. Dean Brody - Movin' On
TTITLE13=Jon Pardi - Up All Night
TTITLE14=Emerson Drive - With You
TTITLE15=Katie Armiger - Playin With Fire
TTITLE16=Justin Moore  - Point At You
TTITLE17=Alee - Don't Say You Love Me
TTITLE18=Tate Stevens - Power Of A Love Song
TTITLE19=Phil Vassar - Love Is Alive
TTITLE20=Drake White - The Simple Life
TTITLE21=Erica Nicole - Better Beer
EXTD=
EXTT0=
EXTT1=
EXTT2=
EXTT3=
EXTT4=
EXTT5=
EXTT6=
EXTT7=
EXTT8=
EXTT9=
EXTT10=
EXTT11=
EXTT12=
EXTT13=
EXTT14=
EXTT15=
EXTT16=
EXTT17=
EXTT18=
EXTT19=
EXTT20=
EXTT21=
PLAYORDER=
